<svg width="635.04718" height="585.04718" xmlns="http://www.w3.org/2000/svg">
 <metadata id="metadata49">image/svg+xml</metadata>

 <g>
  <title>background</title>
  <rect x="-1" y="-1" width="637.04718" height="587.04718" id="canvas_background" fill="none"/>
 </g>
 <g>
  <title>Layer 1</title>
  <g id="Layer1000"/>
  <g id="Layer1001"/>
  <g id="Layer1002">
   <g id="Layer1003">
    <g id="Layer1004">
     <path id="path6" d="m138.2177,233.0021c0,5.4529 -0.8082,11.1071 -2.6258,16.9636c-1.8177,5.8565 -4.4424,11.713 -7.6742,17.3672c-3.4329,5.6542 -7.4718,11.1071 -12.3188,16.1554c-4.8471,5.0483 -10.299,9.693 -16.1555,13.5307c-6.0588,3.8365 -12.5212,6.8659 -19.5894,9.2894c-7.0683,2.2212 -14.7424,3.433 -22.6178,3.433c-6.0589,0 -11.1072,-0.8082 -15.146,-2.4235c-4.0389,-1.6154 -7.4718,-3.2307 -10.0977,-5.2506c-3.0294,-2.2213 -5.6542,-4.8471 -7.4718,-7.6742c-3.433,2.4235 -6.4624,4.6447 -9.4918,6.6647c-1.4141,0.8082 -2.6259,1.6153 -3.8365,2.4235c-1.2118,0.8082 -2.4236,1.6154 -3.6353,2.2212c-1.2118,0.6059 -2.2212,1.2118 -3.2307,1.6154c-1.0094,0.4035 -1.8176,0.6059 -2.4235,0.6059c-0.6059,0 -1.4141,-0.2024 -1.8177,-0.6059c-0.6058,-0.4036 -0.8082,-1.0095 -0.8082,-1.8177c0,-0.8082 1.0095,-2.6258 2.8271,-5.4529c1.8177,-2.8271 4.2412,-6.0588 7.2706,-10.0977c3.0294,-4.0388 6.2601,-8.28 10.0977,-13.1271c3.8365,-4.6447 7.6741,-9.4918 11.713,-14.3377l0,-1.6154c0,-6.6647 1.0094,-12.7224 3.2306,-18.3777c2.2213,-5.6542 5.0483,-10.9048 8.6836,-15.5495c3.6353,-4.6447 7.6742,-8.6836 12.5212,-12.3189c4.6448,-3.433 9.6931,-6.4624 14.7425,-8.8859c5.0483,-2.4235 10.2989,-4.2412 15.5495,-5.4529c5.2506,-1.2118 10.0977,-1.8177 14.7424,-1.8177c6.6647,0 12.3189,0.8082 17.1659,2.6259c4.8471,1.8176 8.6836,4.2411 11.9154,7.2705c3.0294,3.0295 5.2506,6.866 6.8659,10.9048c0.8071,4.4435 1.6153,8.887 1.6153,13.7341zm-5.8565,4.0388c0,-4.6447 -0.8082,-9.0871 -2.2212,-13.127c-1.6153,-4.0389 -3.8365,-7.4719 -7.0682,-10.5013c-3.2307,-3.0294 -7.2706,-5.2506 -12.3189,-7.0682c-5.0483,-1.8177 -11.1071,-2.6259 -18.1754,-2.6259c-7.4718,0 -14.5401,1.4141 -21.406,4.4424c-6.866,3.0294 -12.7225,6.866 -17.9731,11.713c-5.2506,4.8471 -9.2895,10.2989 -12.5212,16.5601c-3.0294,6.26 -4.6447,12.7224 -4.6447,19.1848l0,1.2118c2.6258,-3.2307 5.2506,-6.4624 7.8764,-9.4918c2.4236,-3.0294 4.8471,-5.8565 7.0683,-8.28c2.2212,-2.6259 4.0388,-4.8471 5.6542,-6.866c1.6153,-2.02 3.0294,-3.433 4.0388,-4.6447c0.4036,-0.4036 0.8082,-0.8082 1.6153,-1.4141c0.6059,-0.6059 1.4141,-0.8082 2.4236,-0.8082c1.0094,0 1.6153,0.2023 2.2212,0.2023c0.4035,0 0.8082,0.4036 0.8082,0.8082c0,0.6059 -0.2023,1.2118 -0.8082,1.8177c-4.0389,4.2411 -8.6836,9.2894 -13.9342,15.3482c-5.2506,5.8565 -10.7036,12.1166 -16.1554,18.3778c0.6058,5.6541 2.0199,10.5012 4.2411,14.7424c2.02,4.2411 4.2412,7.6741 6.6647,10.0976c0.4036,0.4036 0.6059,0.6059 0.6059,1.0095c0,0.2023 0,0.6059 0,0.6059c0,0.4035 -0.4035,1.0094 -1.4141,1.8176c-0.8082,0.6059 -1.4141,0.8082 -2.0199,0.8082c-0.6059,0 -1.0095,-0.2023 -1.6154,-0.6059c-6.26,-6.6647 -10.0976,-14.3377 -11.5106,-22.8201c-3.6353,4.2412 -7.2706,8.4813 -10.5013,12.5212c-3.4329,4.0389 -6.26,7.6742 -8.8859,11.1071c-2.4235,3.2307 -4.4424,6.0589 -6.0588,8.2801c-1.6153,2.2212 -2.2212,3.8365 -2.2212,4.4424c0,0.4035 0.2023,0.6059 0.8082,0.6059c0.6059,0 1.6153,-0.4036 3.0294,-1.2118c1.4141,-0.8082 2.8271,-1.6153 4.6447,-2.6258c1.8177,-1.0095 3.6353,-2.2213 5.453,-3.6353c1.8176,-1.2118 3.6353,-2.6259 5.2506,-3.6353c1.6153,-1.2118 3.0294,-2.2212 4.0388,-3.0294c1.0095,-0.8083 1.8177,-1.4141 1.8177,-1.6154c0.4036,-0.4035 0.8082,-0.6059 1.2118,-0.6059c0.4035,0 0.6058,0.2024 0.8082,0.6059c1.8176,3.2307 4.0388,5.8565 6.4623,8.0777c2.4236,2.02 5.0483,3.6353 7.8765,4.8471c2.6259,1.2118 5.453,2.02 8.28,2.4235c2.8271,0.4036 5.2507,0.6059 7.6742,0.6059c6.8659,0 13.5306,-1.0094 19.7907,-3.0294c6.2601,-2.02 11.9153,-4.6447 17.3672,-8.0777c5.2506,-3.433 10.0977,-7.2706 14.3378,-11.9153c4.2411,-4.4425 7.8764,-9.2895 10.9047,-14.3378c3.0295,-5.0483 5.2507,-10.0977 7.0683,-15.5495c0.6037,-4.6459 1.4119,-9.8965 1.4119,-14.7425zm25.8496,56.7474c0,-0.2023 0,-0.4036 -0.2024,-0.6059c0,-0.2023 -0.2023,-0.4035 -0.4035,-0.4035l-0.2023,-0.001c-0.4036,0.2023 -1.0095,0.6059 -2.02,1.0094c-0.8082,0.4036 -1.8177,0.8082 -3.0294,1.0095c-1.2118,0.4035 -2.4235,0.6059 -3.8365,0.8082c-1.4141,0.2023 -2.6259,0.4035 -3.8366,0.4035c-1.8176,0 -3.2306,-0.6058 -4.2412,-2.0199c2.02,-2.4236 3.6353,-4.6448 4.8471,-6.866c1.2118,-2.2212 1.8176,-4.0388 1.8176,-5.6542c0,-1.6153 -0.8082,-2.4235 -2.4235,-2.4235c-1.2117,0 -2.4235,0.4036 -3.433,1.0095c-1.0094,0.6058 -1.8176,1.414 -2.6258,2.4235c-0.6059,1.0094 -1.2118,2.2212 -1.6153,3.6353c-0.4036,1.4141 -0.6059,2.6258 -0.6059,4.0388c0,1.8177 0.4036,3.433 1.0094,4.6448c-1.8176,1.6153 -3.6353,3.0294 -5.6541,4.2411c-2.02,1.2118 -3.8366,1.8177 -5.2507,1.8177c-2.0199,0 -2.8271,-1.0095 -2.8271,-3.0294c0,-1.4141 0.6059,-3.2307 2.02,-5.2506c1.4141,-2.2212 2.8271,-4.2412 4.6448,-6.0589c1.8176,-2.0199 3.6352,-3.6353 5.6541,-5.0483c1.8177,-1.414 3.433,-2.2212 4.4424,-2.2212c0.2024,0 0.6059,0 0.8082,0c0.2024,0 0.4036,-0.2023 0.4036,-0.4035c0,-0.2023 -0.2023,-0.6059 -0.6059,-0.8082c-0.4035,-0.4036 -0.8082,-0.4036 -1.2117,-0.4036c-1.6154,0 -3.6353,0.8082 -6.0589,2.6259c-2.4235,1.8176 -4.847,3.8365 -7.0682,6.4623c-2.2212,2.4236 -4.2412,5.0483 -5.8565,7.8765c-1.6154,2.6259 -2.4236,5.0483 -2.4236,6.866c0,1.414 0.4036,2.6258 1.0095,3.2306c0.6059,0.6059 1.6153,0.8082 2.8271,0.8082c2.8271,0 5.6542,-0.8082 8.4812,-2.4235c2.8271,-1.6153 5.453,-3.6353 7.6742,-6.0588c1.2118,1.414 3.0294,2.2212 5.2506,2.2212c3.6353,0 8.28,-1.2118 13.733,-3.8366c0.2023,0 0.4035,-0.2023 0.4035,-0.2023c0.4058,-1.0094 0.4058,-1.2118 0.4058,-1.413l0,-0.0001zm-13.1271,-9.6941c0,1.0094 -0.4036,2.4235 -1.4141,3.8365c-1.0094,1.6153 -2.2212,3.2307 -3.6353,4.6448c-0.2023,-0.6059 -0.4036,-1.2118 -0.6059,-2.02c0,-0.6059 -0.2023,-1.4141 -0.2023,-2.02c0,-1.6153 0.4036,-3.2306 1.0094,-4.4424c0.6059,-1.4141 1.4141,-2.02 2.4236,-2.02c1.6175,0.002 2.4246,0.6081 2.4246,2.0211zm33.7249,0c0.6059,-3.433 0.8082,-6.866 0,-9.693c-0.6059,-3.0295 -1.4141,-5.8565 -2.6259,-8.4813c-1.0094,-2.8271 -2.0199,-5.453 -3.0294,-8.28c-1.0094,-2.8271 -1.414,-5.8565 -1.414,-9.0872c0,-2.8271 1.414,-4.847 4.2411,-6.2601c2.8271,-1.414 6.2601,-2.4235 10.0977,-3.0294c3.8365,-0.6058 7.8765,-1.0094 11.713,-1.0094c3.8365,0 6.8659,0 9.0872,0c1.6153,0 2.827,0 4.0388,-0.2023c1.0095,-0.2024 1.8177,-0.2024 2.2212,-0.2024c0.6059,0 1.0095,0.6059 1.0095,2.02c0,0.8082 -0.4036,1.4141 -1.4141,2.02c-1.0095,0.6059 -2.02,1.0094 -3.433,1.4141c-1.4141,0.4035 -2.8271,0.6059 -4.4424,0.8082c-1.6153,0.2023 -3.0294,0.2023 -4.2412,0.2023l-23.8296,0.8082c-1.414,0 -2.2212,0.6059 -2.6258,1.8176c-0.4036,1.2118 -0.4036,2.6259 0,4.4425c0.4036,1.8176 0.8082,3.8365 1.6153,6.0588c0.8082,2.2212 1.4141,4.4424 2.2212,6.8659c0.8082,2.2212 1.4141,4.4424 2.02,6.4624c0.6059,2.02 1.0094,3.8365 1.0094,5.2506c0.2024,1.8177 0.2024,3.6353 0.2024,5.2506c0,1.6154 -0.2024,3.2307 -0.8082,4.8471c-0.6059,1.6164 -1.4141,3.2307 -2.8271,5.0483c-1.2118,1.8176 -3.0294,3.6353 -5.2506,5.8565c-2.4236,2.4235 -5.0483,4.4424 -7.6742,6.0588c-2.6258,1.6154 -5.4529,2.4236 -8.4813,2.4236c-2.6258,0 -4.0388,-1.4141 -4.0388,-4.0389c0,-1.8176 0.8082,-4.0389 2.4235,-6.8659c1.6153,-2.6259 3.6353,-5.2507 5.8565,-7.8765c2.2212,-2.4235 4.6447,-4.6447 7.0683,-6.4624c2.4235,-1.8176 4.4424,-2.6258 6.0588,-2.6258c0.4036,0 0.8082,0.2023 1.2118,0.4035c0.4035,0.4036 0.6058,0.6059 0.6058,0.8082c0,0.2023 -0.2023,0.2023 -0.4035,0.4036c-0.2023,0 -0.6059,0 -0.8082,0c-1.0095,0 -2.4235,0.8082 -4.4424,2.2212c-1.8177,1.4141 -3.8366,3.2306 -5.6542,5.0483c-1.8177,2.02 -3.433,4.0388 -4.6447,6.0588c-1.4141,2.2212 -2.02,3.8365 -2.02,5.2506c0,2.02 1.0094,3.0294 2.8271,3.0294c2.0199,0 4.2411,-0.8082 6.4624,-2.4235c2.2212,-1.6153 4.0388,-3.433 5.8565,-5.4529c1.8176,-2.02 3.2306,-3.8366 4.2411,-5.6542c1.4152,-1.6186 2.02,-2.8303 2.02,-3.2339zm45.0344,-1.0095c0,-1.2117 -0.6059,-2.2212 -1.8177,-3.2306c-1.2118,-0.8082 -2.4235,-1.4141 -3.6353,-1.4141c-2.0199,0 -4.2412,0.4036 -7.2706,1.4141c-2.8271,1.0094 -6.0588,2.2212 -9.4918,3.8365l0.8082,-0.8082c0.6059,-0.6059 1.2118,-1.4141 1.8177,-2.6258c0.6059,-1.2118 1.0094,-2.02 1.0094,-2.2212c0,-0.6059 -0.4035,-0.8082 -1.0094,-0.8082c-0.6059,0 -1.2118,-0.2024 -1.8177,-0.2024c-0.4035,0 -0.8082,0 -1.2117,0.2024c-0.4036,0 -0.8082,0.4035 -0.8082,0.6058c-0.4036,0.8083 -1.0095,1.6154 -1.6154,2.6259c-0.6058,0.8082 -1.414,1.8176 -2.0199,3.0294c-0.8082,1.2118 -1.6153,2.6259 -2.6259,4.2412c-5.0483,2.8271 -10.5012,6.0588 -16.1554,9.8953c-5.6542,3.8366 -11.3094,8.0777 -16.7613,12.3189c-5.4529,4.4424 -10.7035,9.0872 -15.7518,13.733c-5.0483,4.6447 -9.2895,9.4918 -13.1271,14.1365c-3.8366,4.6448 -6.866,9.2895 -9.0872,13.9342c-2.2212,4.4424 -3.433,8.6836 -3.433,12.5212c0,2.02 0.6059,3.433 1.6154,4.2412c1.2117,1.0095 2.6258,1.4141 4.2411,1.4141c3.2307,0 6.4624,-1.2118 10.0977,-3.8365c3.6353,-2.6259 7.2706,-5.8565 11.1071,-10.0977c3.8366,-4.2412 7.8765,-9.0872 11.9154,-14.7424c4.0388,-5.6542 8.28,-11.5107 12.7224,-17.5695c4.4424,-6.0588 8.6836,-12.3189 13.3283,-18.579c4.4425,-6.26 9.0872,-12.1165 13.5307,-17.5695c3.433,-1.6153 6.26,-3.0294 8.8859,-3.8365c2.6259,-1.0094 4.6447,-1.4141 6.4624,-1.4141c1.0094,0 1.8176,0.2023 2.6258,0.6059c0.8082,0.4036 1.2118,1.2118 1.2118,2.4235c0,1.2118 -0.4036,2.4235 -1.2118,3.6353c-0.8082,1.2118 -1.8176,2.4235 -3.2306,3.433c-1.2118,1.0094 -2.6259,2.02 -4.2412,2.6258c-1.6153,0.6059 -3.0294,1.0095 -4.4424,1.0095c-1.2118,0 -2.02,-0.2023 -2.6259,-0.6059c-0.6058,-0.4036 -1.0094,-0.8082 -1.2117,-1.2118c-0.2023,-0.4035 -0.4036,-0.8082 -0.6059,-1.2117c-0.2023,-0.4036 -0.6059,-0.6059 -1.2118,-0.6059c-0.2023,0 -0.6059,0.2023 -1.0094,0.4035c-0.4036,0.2024 -0.8082,0.6059 -1.2118,0.8082c-0.4035,0.4036 -0.8082,0.8083 -1.2117,1.2118c-0.4036,0.4036 -0.4036,0.8082 -0.4036,1.4141c0,0.2023 0,0.4036 0.2023,0.6059c0.4036,0.4035 0.8082,0.8082 1.2118,1.6153c0.4035,0.6059 1.4141,1.0095 3.0294,1.0095c1.6153,0 3.8365,-0.6059 6.6647,-1.6154c2.6258,-1.0094 5.4529,-2.2212 7.8765,-3.8365c2.6258,-1.6153 4.847,-3.2307 6.6647,-5.2506c2.4213,-1.6186 3.2285,-3.6386 3.2285,-5.6575zm-32.1096,8.6836c-4.4424,2.6259 -9.2895,5.6542 -14.1366,9.0872c-5.0483,3.433 -9.8953,7.0683 -14.7424,11.1071c-4.847,4.0389 -9.4918,8.0777 -13.9342,12.3189c-4.4424,4.2412 -8.28,8.6836 -11.713,12.9248c-3.433,4.2411 -6.0588,8.6835 -8.0777,12.9247c-2.02,4.2412 -3.0294,8.2801 -3.0294,11.9153c0,0.8083 0.2023,1.6154 0.8082,2.6259c0.4036,1.0094 1.4141,1.6153 3.0294,1.6153c2.02,0 4.4424,-1.2117 7.4718,-3.8365c3.0294,-2.6259 6.4624,-5.8565 10.0977,-10.0977c3.6353,-4.0388 7.6742,-8.8859 11.713,-14.1365c4.0389,-5.2506 8.0777,-10.7036 12.1166,-16.1554c4.0388,-5.453 7.6741,-10.9048 11.3094,-16.1554c3.2307,-5.4541 6.2601,-10.0988 9.0872,-14.1377zm48.8719,3.6353c1.2118,-1.2117 2.2212,-2.2212 2.8271,-3.4329c0.6059,-1.2118 1.0095,-2.2212 1.0095,-3.2307c0,-1.8176 -0.8082,-2.6258 -2.4236,-2.6258c-1.2117,0 -2.2212,0.6058 -3.0294,1.8176c-0.8082,1.2118 -1.2117,2.4235 -1.2117,3.6353c-0.2013,1.8166 0.8082,3.2307 2.8281,3.8365zm1.8177,0.8072c1.0094,0.2023 2.2212,0.2023 3.8365,-0.4036c1.4141,-0.6059 2.8271,-1.2118 4.4424,-2.2212c1.4141,-1.0095 2.8271,-2.2212 4.2412,-3.6353c1.4141,-1.4141 2.4235,-3.0294 3.2307,-4.6447c1.0094,-2.02 2.0199,-3.0295 3.2306,-3.0295c0.6059,0 1.2118,0.2024 1.6153,0.4036c0.4036,0.4036 0.8082,0.8082 0.8082,1.6153c0,0.2024 -0.2023,0.6059 -0.6058,1.2118c-0.4036,0.6059 -0.8082,1.4141 -1.4141,2.4235c-0.4036,1.0095 -1.0095,2.02 -1.4141,3.2307c-0.4036,1.2117 -0.6059,2.4235 -0.6059,3.8365c0,1.0095 0.4036,1.8177 1.0094,2.6259c0.6059,0.8082 1.8177,1.2117 3.2307,1.2117c1.0094,0 2.02,-0.2023 3.2306,-0.4035c1.2118,-0.4036 2.4236,-0.6059 3.6353,-1.2118c1.2118,-0.4036 2.2212,-0.8082 3.2307,-1.2118c1.0094,-0.4035 1.8176,-0.8082 2.2212,-0.8082c1.4141,-0.4035 2.6258,-1.0094 3.433,-1.4141c0.8082,-0.4035 1.4141,-0.8082 2.2212,-1.0094c0.4035,0 0.6059,0.4036 0.6059,1.0094c0,0.4036 -0.2024,0.8082 -0.4036,0.8082l-5.8565,2.4236c-0.8082,0.4035 -2.02,0.8082 -3.433,1.4141c-1.4141,0.6058 -2.8271,1.2117 -4.4424,1.8176c-1.6153,0.6059 -3.0294,1.0095 -4.6447,1.4141c-1.4141,0.4036 -2.8271,0.6059 -4.0389,0.6059c-1.2117,0 -2.0199,-0.2023 -2.6258,-0.8082c-0.6059,-0.6059 -1.2118,-1.0095 -1.6154,-1.8177c-0.4035,-0.6059 -0.6058,-1.2117 -0.8082,-2.0199c-0.2023,-0.6059 -0.2023,-1.2118 -0.2023,-1.6154c0,-1.2117 0.2023,-2.2212 0.6059,-3.2306c0.4036,-1.0095 0.8082,-1.6153 1.0094,-2.2212c-1.8176,2.2212 -3.8365,3.8365 -6.4623,5.4529c-2.4236,1.4141 -5.453,2.02 -9.0872,1.4141c-2.4235,2.2212 -4.4424,3.433 -6.0588,3.8365c-1.6153,0.4036 -3.433,0.6059 -5.453,0.6059c-3.2306,0 -4.6447,-1.4141 -4.6447,-4.2412c0,-1.6153 0.8082,-3.8365 2.4235,-6.6647c1.6154,-2.8271 3.433,-5.4529 5.453,-8.0777c2.02,-2.6258 4.2412,-5.0483 6.26,-7.0682c2.02,-2.02 3.433,-3.0294 4.2412,-3.2307c0,0 0.4036,0 1.2118,-0.2023c0.6059,-0.2023 1.0094,-0.2023 1.2117,-0.2023c0.4036,0 0.8083,0.2023 1.2118,0.4035c0.4036,0.4036 0.4036,0.6059 0.4036,1.0095c0,0.2023 -0.4036,0.6059 -1.0095,1.2117c-0.6059,0.6059 -1.4141,1.2118 -2.2212,1.8177c-0.8082,0.6059 -1.6153,1.4141 -2.6258,2.2212c-0.8082,0.8082 -1.6154,1.6153 -2.02,2.2212c-2.8271,3.0294 -5.2506,5.8565 -7.2706,8.28c-2.0199,2.6259 -3.0294,4.6448 -3.0294,6.0589c0,1.0094 0.4036,1.8176 1.4141,2.4235c1.0094,0.6059 1.8176,0.8082 2.6258,0.8082c1.2118,0 2.2213,-0.2023 3.0295,-0.4036c0.8082,-0.4035 1.8176,-1.0094 3.0294,-2.0199c-1.2118,-0.6059 -2.02,-1.4141 -2.6259,-2.4236c-0.6059,-1.2117 -0.8082,-2.4235 -0.8082,-3.6353c0,-2.2212 0.8082,-4.2411 2.2212,-5.8565c1.4141,-1.8176 3.433,-2.6258 6.2601,-2.6258c1.2117,0 2.0199,0.4035 2.6258,1.2117c0.6059,0.8082 0.8082,1.8177 0.8082,2.8271c0,1.6154 -0.4035,3.2307 -1.0094,4.6448c-0.6016,2.021 -2.0146,3.8387 -3.8322,5.8576zm70.6816,-2.4225c0,-0.2023 0,-0.4036 -0.2024,-0.6059c-0.2023,-0.2023 -0.2023,-0.4035 -0.4035,-0.4035c-2.4236,1.2117 -5.0483,2.2212 -7.4719,3.0294c-2.2212,0.8082 -4.6447,1.4141 -7.0682,2.2212c-2.6259,0.6059 -5.0483,1.0094 -7.2706,1.0094c-1.2118,0 -2.4235,-0.2023 -3.8365,-0.8082c-1.4141,-0.6059 -2.02,-1.6153 -2.02,-2.8271c0,-1.8176 0.8082,-3.4329 2.6258,-4.4424c1.6154,-1.2117 3.433,-1.8176 5.2507,-2.4235c1.0094,-0.2023 1.6153,-0.6059 1.6153,-1.0095c0.2023,-0.4035 0.2023,-1.0094 0.2023,-1.414c0,-0.6059 0,-1.2118 -0.2023,-1.4141c-0.2023,-0.2023 -0.8082,-0.4036 -1.6153,-0.6059c-0.2024,0 -0.6059,0 -1.2118,0c-0.6059,0 -1.2118,0 -1.8176,0c-0.6059,0 -1.2118,0 -1.6154,-0.2023c-0.6059,0 -0.8082,0 -1.0094,0c-0.6059,-0.2024 -0.8082,-0.6059 -0.8082,-1.0095c0,-0.2023 0.2023,-0.6059 0.6059,-0.8082c0.2023,-0.2023 1.0094,-0.6059 2.0199,-1.2117c1.0095,-0.6059 2.2212,-1.2118 3.6353,-1.8177c1.4141,-0.6059 2.6259,-1.2118 4.0389,-1.8176c1.4141,-0.6059 2.4235,-0.8082 3.0294,-1.0095c0.4036,0 0.8082,-0.2023 1.2118,-0.2023c0.4035,0 0.6058,0 0.8082,0c0.4035,0 0.6058,0 0.6058,0.2023c0,0.2023 0,0.4036 -0.2023,0.6059c-0.4035,0.6059 -0.6059,1.2118 -0.6059,1.8177c0,0.4035 0.2024,0.8082 0.6059,1.0094c0.4036,0.2023 0.8082,0.2023 1.2118,0.2023c0.6059,0 1.2117,-0.2023 1.8176,-0.4035c0.6059,-0.2024 1.4141,-0.6059 2.02,-1.0095c0.6059,-0.4035 1.2118,-0.8082 1.6153,-1.4141c0.4036,-0.6059 0.6059,-1.0094 0.6059,-1.4141c0,-1.0094 -0.4036,-1.8176 -1.2118,-2.2212c-0.8082,-0.4035 -1.6153,-0.6058 -2.4235,-0.6058c-0.8082,0 -2.2212,0.2023 -4.0388,0.8082c-2.02,0.6058 -4.0389,1.2117 -6.4624,2.2212c-2.4236,1.0094 -4.6448,2.0199 -7.0683,3.2306c-2.4235,1.2118 -4.4424,2.4235 -6.2601,3.6353c-0.2023,0.2023 -0.4035,0.6059 -0.8082,1.0094c-0.4035,0.6059 -0.6058,1.0095 -0.6058,1.8177c0,0.4036 0.2023,0.8082 0.4035,1.4141c0.4036,0.4035 1.0095,0.8082 1.8177,0.8082c1.6153,0.2023 2.6258,0.4035 3.4329,0.6059c0.6059,0 1.0095,0.2023 1.0095,0.4035c0,0 -0.4036,0.4036 -1.2118,1.0095c-0.8082,0.6059 -1.6153,1.2117 -2.4235,2.0199c-1.0095,0.8082 -1.8177,1.8177 -2.6259,3.0295c-0.8082,1.2117 -1.2117,2.4235 -1.2117,3.6352c0,1.4141 0.6059,2.6259 1.6153,3.433c1.0094,0.8082 2.4235,1.4141 4.2412,1.4141c2.0199,0 4.6447,-0.4036 7.8764,-1.4141c3.0295,-1.0094 6.0589,-1.8176 9.0872,-3.0294c3.433,-1.2118 6.8659,-2.6258 10.5012,-4.2412c0,-0.2012 0.2024,-0.4035 0.2024,-0.8071z" stroke-width="0.5292" stroke="#60afd1" fill-rule="evenodd" fill="#53a6d1"/>
     <path id="path8" d="m213.7464,149.7993c1.2117,3.0294 1.8176,6.6647 2.0199,9.0872c-3.6353,-9.8954 -9.2894,-19.1849 -15.1459,-26.2531c-7.4719,-9.0872 -10.7036,-10.9048 -22.2143,-14.7424c-2.6258,-6.4624 -6.26,-9.8954 -12.7224,-11.3095c-1.2118,-14.1365 -7.8765,-26.6566 -22.6178,-24.0319c-2.02,0.4036 -1.4141,2.4236 -0.8082,4.6448l4.847,16.3577l2.4236,8.0777c1.414,4.8471 3.4329,9.2895 8.4812,11.1071c-0.2023,8.0777 2.8271,16.7613 4.2412,24.8401c-5.2506,-15.1459 -11.713,-23.0224 -13.9342,-29.2825l-5.0483,-16.3577c-2.2212,-6.4624 -3.0294,-8.8859 -6.2601,-14.7424c-1.414,-2.6259 -1.6153,-4.8471 1.8177,-6.6647c5.6542,-3.0294 9.4918,-2.4236 14.7424,-0.2024c7.6741,3.2307 12.1166,11.9154 14.9436,19.7908l1.0095,2.4235c6.2601,3.2306 8.6836,6.0588 11.713,12.9248c16.7602,3.6363 26.6556,18.7823 32.5121,34.3329z" stroke-width="0.5292" stroke="#60afd1" fill-rule="evenodd" fill="#53a6d1"/>
     <path id="path10" d="m176.992,61.5482c1.4141,8.886 1.0095,18.7813 -3.4329,26.6567c-1.0095,1.8176 -3.0294,1.4141 -3.2307,0.2023c-0.2023,-0.8082 -0.2023,-2.6258 1.0095,-4.0388c4.6447,-5.453 4.6447,-15.3483 2.827,-22.012c-0.6058,-2.0199 -0.2023,-2.0199 -2.4235,-3.0294c-0.8082,-1.2117 -0.8082,-2.8271 2.2212,-3.2306c4.2412,-0.8082 7.0683,-3.2307 9.8954,-6.4624c7.6741,-8.0777 14.7424,-17.5695 11.713,-30.0907c-1.6153,-6.2601 -5.2506,-2.4235 -11.9153,5.0483l-9.6931,11.3094c-4.0388,4.8471 -6.4624,8.0777 -9.4918,12.7225c-2.2212,3.6353 -2.2212,3.6353 -2.8271,7.8764c-1.0094,6.2601 -1.8176,13.1271 -5.2506,16.5601c-1.8176,1.8177 -4.4424,2.6259 -8.0777,1.8177c-1.2118,0 -1.8176,-4.4425 0.8082,-3.6353c4.6448,1.414 6.0588,-1.6154 7.0683,-5.6542c1.6153,-6.2601 1.8176,-13.9342 2.4235,-20.3966c1.4141,0 2.4235,-0.2023 3.2307,-0.4036c2.2212,-0.8082 2.4235,-3.0294 3.0294,-7.0682c1.0094,-7.2706 1.6153,-14.3378 -2.2212,-21.0025c-4.4424,-7.4718 -5.8565,-0.4036 -10.299,9.4918l-9.2905,20.7991c-7.6742,15.9541 -9.4918,21.0024 -11.3094,39.3801c-1.0095,10.7036 -1.8177,20.8002 0,31.5037c3.6352,22.8202 20.3965,34.1296 27.4648,55.3333c1.4141,4.2412 2.4235,8.8859 0.8082,12.9248c-1.6153,4.0388 -3.6353,3.0294 -4.847,0.2023c-0.6059,-1.2118 -0.8082,-2.2212 -1.2118,-4.4424c-1.4141,-6.866 -2.2212,-13.3283 -5.8565,-20.3966c-9.4918,-16.5601 -15.9542,-25.2436 -20.1943,-42.6108c-2.0199,-7.8765 -1.0094,-15.7519 -1.0094,-23.8296c1.8176,-23.426 4.2412,-31.5037 13.5306,-52.1026l10.0977,-21.8107c4.6447,-11.5107 6.6647,-17.5695 13.9342,-8.0777c3.8365,5.0483 4.4424,11.1071 4.8471,17.3672c0.2023,4.0388 1.6153,3.0294 3.6353,0.8082l4.4413,-5.6564c10.0977,-12.7224 18.7813,-24.2342 21.0025,-5.6541c1.0094,7.4718 0.4035,9.4918 -1.4141,16.56c-0.2023,1.0095 -1.2118,2.6259 0,2.4235c3.2306,-2.2212 9.8953,-7.2705 13.3283,-7.6741c1.6153,-0.2023 4.2412,0 4.8471,1.2118c0.8082,1.8176 -1.2118,2.4235 -3.0294,2.6258c-6.6647,0.8082 -15.146,7.0683 -21.4061,11.9153c-2.4235,2.2202 -14.7424,12.1155 -13.7319,14.539z" stroke-width="0.5292" stroke="#60afd1" fill-rule="evenodd" fill="#53a6d1"/>
     <path id="path12" d="m217.5829,135.2592c7.0683,21.4061 6.4624,39.3802 0.6059,55.7379c-6.4624,17.9731 -19.9931,33.3214 -38.1684,47.0544c-14.3378,10.7035 -31.7061,20.1942 -53.3144,28.273c-21.8107,8.0777 -47.8615,14.7424 -79.1639,19.5895l-5.0483,0.8082l3.4329,3.2307c31.5037,-4.8471 59.978,-12.3189 81.7887,-20.3966c22.0119,-8.2801 39.5814,-17.9731 54.1215,-28.6767c18.7813,-13.9342 32.5132,-29.8883 39.3802,-48.4673c5.8565,-16.3577 5.4529,-35.7449 -1.0094,-56.9497l-2.6248,-0.2034z" stroke-width="0.5292" stroke="#60afd1" fill-rule="evenodd" fill="#53a6d1"/>
    </g>
   </g>
   <g id="Layer1005">
    <g id="Layer1006">
     <path id="path16" d="m475.6725,269.5541c0,4.2412 -1.2118,8.28 -3.433,12.3189c-2.2212,4.0388 -5.2506,7.4718 -9.0871,10.5012c-3.8366,3.0294 -8.0777,5.453 -12.9248,7.2706c-4.8471,1.8177 -9.8954,2.8271 -14.9436,2.8271c-2.4236,0 -4.8471,-0.4036 -7.0683,-1.0094c-2.2212,-0.6059 -4.2412,-1.4141 -6.0588,-2.6259c-0.8082,1.2118 -1.8177,2.2212 -2.6259,3.433c-0.8082,1.2117 -1.8176,2.4235 -2.6258,3.6353c-4.6448,6.4624 -9.4918,12.7224 -14.3378,18.9836c-4.8471,6.26 -10.2989,11.713 -15.9542,16.7613c-5.6542,4.847 -11.9153,8.8859 -18.7813,11.9153c-6.8659,3.0294 -14.3377,4.6447 -22.8201,4.6447c-4.6447,0 -8.8859,-0.8082 -12.7224,-2.4235c-3.8365,-1.6153 -7.0683,-3.8365 -9.8954,-6.6647c-2.6258,-2.8271 -4.847,-6.2601 -6.26,-10.0977c-1.4141,-3.8365 -2.2212,-8.0777 -2.2212,-12.7224c0,-8.2801 1.8176,-16.1555 5.4529,-23.6284c3.6353,-7.4718 8.28,-14.3377 14.3378,-20.5989c6.0588,-6.26 12.9247,-12.1165 20.8001,-17.1659c7.8765,-5.0483 16.1554,-9.4918 24.6378,-13.1271c8.6836,-3.6353 17.3672,-6.2601 26.0508,-8.28c8.6836,-2.02 16.9636,-2.8271 24.8401,-2.8271c5.8565,0 11.5106,0.6059 16.9636,2.0199c5.4529,1.4141 10.2989,3.2307 14.5401,5.6542c4.2411,2.4236 7.6741,5.453 10.2989,9.0872c2.4235,3.4351 3.8376,7.474 3.8376,12.1187zm-6.2601,3.8365c0,-4.0388 -1.2117,-7.6741 -3.8365,-11.1071c-2.6259,-3.433 -6.0588,-6.26 -10.5012,-8.8859c-4.4425,-2.4235 -9.4918,-4.4424 -15.146,-5.8565c-5.8565,-1.4141 -11.713,-2.2212 -17.9731,-2.2212c-9.0871,0 -17.7718,1.0094 -26.2531,3.2306c-8.4812,2.2213 -16.3577,5.0483 -23.8295,8.886c-7.4719,3.8365 -14.3378,8.0777 -20.3966,13.127c-6.0588,5.0483 -11.5107,10.5013 -15.9542,16.1555c-4.4424,5.6541 -7.8765,11.713 -10.2989,17.7718c-2.4235,6.0588 -3.6353,12.1165 -3.6353,17.973c0,4.8471 0.8082,9.0872 2.2212,12.7225c1.4141,3.8365 3.433,6.8659 6.0588,9.4918c2.6259,2.6258 5.6542,4.6447 9.2895,6.0588c3.6353,1.4141 7.4718,2.02 11.713,2.02c8.4813,0 15.7518,-1.6153 22.2142,-5.0483c6.4624,-3.433 12.3189,-7.6742 17.5695,-13.1271c5.2507,-5.4529 10.2989,-11.3094 14.9437,-17.9731c4.6447,-6.6647 9.4918,-13.3283 14.1365,-19.7907c-1.8176,-1.4141 -3.2306,-2.6258 -4.2412,-4.0388c-1.0094,-1.4141 -1.414,-2.6259 -1.414,-3.8366c0,-1.0094 0.4035,-1.8176 1.0094,-2.4235c0.6059,-0.8082 1.2118,-1.0094 2.02,-1.0094c0.6058,0 1.0094,0.2023 1.4141,0.8082c0.4035,0.6058 0.8082,1.2117 1.414,2.0199c0.4036,0.8082 1.0095,1.6154 1.6154,2.2212c0.6058,0.6059 1.0094,1.2118 1.6153,1.8177c3.433,-4.6448 7.0683,-8.8859 10.9048,-12.9248c3.8365,-4.0388 7.8765,-7.6741 12.3189,-11.1071c0.6059,-0.4036 1.2117,-0.4036 2.2212,-0.4036c0.8082,0 1.2117,0.2024 1.2117,0.6059c0,0.2023 -0.6058,1.0095 -1.8176,1.8177c-4.0389,3.2306 -7.8765,6.8659 -11.5107,11.1071c-3.6353,4.0388 -7.2706,8.4813 -10.9048,13.1271c2.2212,1.6153 4.6448,2.6258 6.866,3.2306c2.4235,0.6059 4.6447,0.8082 7.0682,0.8082c4.4424,0.2023 8.4813,-0.6059 12.1166,-1.8176c3.6353,-1.4141 6.8659,-3.2307 9.4918,-5.453c2.6258,-2.4235 4.6447,-5.0483 6.0588,-8.28c1.4119,-3.0316 2.2201,-6.2622 2.2201,-9.6963zm-9.6941,82.5969c0,-0.8082 -0.2023,-1.4141 -0.4035,-2.0199c-0.2024,-0.6059 -1.0095,-0.8082 -2.4236,-0.8082c-1.0094,0 -2.4235,0 -3.8365,0c-1.6153,0 -3.433,0 -5.4529,0c-2.6259,0 -5.2507,0.2023 -8.0778,0.4035c-2.6258,0.2023 -5.4529,0.6059 -8.0777,1.2118c3.433,-5.0483 6.866,-10.0977 10.299,-14.9437c3.4329,-4.847 6.6647,-9.4918 9.8953,-14.1365c0.6059,-0.8082 0.8082,-1.4141 0.8082,-2.2212c0,-0.4036 -0.2023,-0.6059 -0.4036,-0.6059c-0.2023,0 -0.4035,0.2023 -0.8082,0.4036c-0.2023,0.4035 -1.2117,1.4141 -3.2306,3.2306c-2.0189,1.8166 -4.2412,3.8366 -6.6647,5.8565c-2.6259,2.2212 -5.2506,4.0389 -8.0777,5.8565c-2.8271,1.8177 -5.2506,2.6259 -7.0683,2.6259c-0.6059,0 -1.2117,-0.2024 -1.8176,-0.4036c-0.4036,-0.2023 -1.0095,-0.6059 -1.4141,-1.0094c-0.4036,-0.6059 -0.6059,-1.2118 -0.6059,-2.02c0,-1.2118 0.6059,-3.0294 1.8176,-5.2506c1.2118,-2.2212 3.433,-5.2506 6.6648,-8.6836c0,-0.2023 0,-0.4036 -0.2024,-0.4036c-0.2023,-0.4035 -0.6058,-0.4035 -1.2117,-0.4035l-0.6059,0c0,0 -0.2023,0 -0.2023,0.2023c-0.6059,0.4036 -1.6154,1.4141 -3.0294,2.8271c-1.4141,1.4141 -2.8271,3.0294 -4.2412,4.847c-1.4141,1.8177 -2.8271,3.6353 -3.8366,5.453c-1.0094,1.8176 -1.6153,3.4329 -1.6153,4.6447c0,3.0294 1.4141,4.4424 4.4424,4.4424c1.2118,0 2.6259,-0.4035 4.4424,-1.0094c1.8177,-0.6059 3.6353,-1.4141 5.453,-2.2212c1.8176,-0.8082 3.6353,-1.8177 5.2506,-2.8271c1.6153,-1.0095 3.0294,-2.02 3.8365,-2.8271c0.2024,-0.2023 0.4036,-0.4036 0.4036,-0.4036c0.2023,0 0.2023,0.2024 0.2023,0.4036c0,0.2023 0,0.2023 -0.2023,0.4036c-1.6153,2.6258 -3.433,5.4529 -5.4529,8.6835c-2.02,3.2307 -4.2412,6.4624 -6.866,10.0977c-7.8765,1.8177 -15.5495,4.4424 -23.0224,8.0777c-7.4718,3.6353 -14.3378,7.8765 -20.1943,12.9248c-5.8565,5.0483 -10.5012,10.5012 -14.1365,16.5601c-3.6353,6.0588 -5.453,12.5212 -5.453,19.1848c0,2.4235 0.4036,4.4424 1.4141,6.4624c1.0095,2.0199 2.6259,2.8271 4.8471,2.8271c3.2306,0 6.8659,-1.8177 11.3094,-5.453c4.4424,-3.6353 9.0872,-8.4812 13.9342,-14.3378c5.0483,-5.8565 10.2989,-12.7224 15.7519,-20.1942c5.4529,-7.6742 10.9048,-15.3483 16.3577,-23.2237c2.4236,-0.4036 5.0483,-0.6059 7.4718,-0.8082c2.4236,-0.2023 5.0483,-0.2023 7.6742,-0.2023c2.8271,0 5.4529,0 7.8765,0.2023c2.4235,0.2023 4.0388,0.4036 4.847,0.6059c2.6259,-0.001 3.6353,-0.607 3.6353,-2.0211zm-34.3308,3.0294c-3.0294,4.4425 -6.0588,8.8859 -9.2895,13.5307c-3.2306,4.6447 -6.6647,9.0871 -9.8953,13.3283c-3.2307,4.4424 -6.4624,8.4813 -9.693,12.3189c-3.2307,3.8365 -6.0589,7.2706 -8.886,10.0977c-2.6258,2.8271 -5.2506,5.0483 -7.2705,6.6647c-2.2213,1.6153 -3.8366,2.4235 -5.2507,2.4235c-1.6153,0 -2.8271,-0.8082 -3.6353,-2.2212c-0.8082,-1.6153 -1.2117,-3.0294 -1.2117,-4.4424c0,-5.2506 1.2117,-10.5013 3.8365,-15.9542c2.6259,-5.4529 6.0588,-10.5012 10.9048,-15.3483c4.6447,-4.847 10.5012,-8.8859 17.3672,-12.5212c6.867,-3.434 14.5412,-6.0588 23.0235,-7.8765zm140.556,-107.6382c0,-5.6542 -2.8271,-8.28 -8.6836,-8.28c-4.0388,0 -8.4812,1.4141 -13.7329,4.2412c-5.0483,2.8271 -10.5013,6.4623 -15.9542,11.1071c-5.4529,4.6447 -11.1071,9.8953 -16.9636,15.7518c-5.6542,5.8565 -11.3095,12.1166 -16.5601,18.3777c-5.2506,6.2601 -10.2989,12.5212 -15.146,18.579c-4.6447,6.0588 -8.8859,11.713 -12.3188,16.7613c-3.433,5.0483 -6.2601,9.2895 -8.2801,12.5212c-2.0199,3.433 -3.0294,5.4529 -3.0294,6.2601c0,0.6058 0.2023,1.0094 0.8082,1.0094c0.4036,0 0.6059,0 0.8082,-0.2023c3.2307,-2.02 6.6647,-4.0389 10.2989,-6.2601c3.8366,-2.2212 7.4719,-4.2412 11.1072,-6.0588c3.6353,-1.8177 6.8659,-3.433 10.0976,-4.6447c3.2307,-1.2118 5.8565,-1.8177 7.8765,-1.8177c1.4141,0 2.02,0.4036 2.02,1.0095c0,0.8082 -0.6059,1.6153 -1.8177,2.827c-1.2117,1.2118 -2.6258,2.4236 -4.6447,3.433c-1.8177,1.2118 -3.8365,2.2212 -6.0588,3.0294c-2.2212,0.8082 -4.2412,1.2118 -6.2601,1.2118c-1.0094,0 -2.02,0.2023 -2.6258,0.6059c-0.8082,0.4035 -1.0095,1.0094 -1.0095,2.2212c0.2023,1.4141 1.2118,2.6258 2.4235,3.8365c1.4141,1.2118 3.8366,1.8177 7.0683,1.8177c2.4235,0 5.0483,-0.4036 8.0777,-1.2118c3.0294,-0.8082 5.8565,-1.6153 8.6836,-2.6259c3.2307,-1.2117 6.2601,-2.4235 9.4918,-3.6353l6.4624,-2.827c0.2023,-0.2024 0.4035,-0.6059 0.4035,-1.0095c0,-0.2023 0,-0.4035 -0.2023,-0.6059c-0.2023,-0.2023 -0.4035,-0.4035 -0.4035,-0.4035c-0.6059,0.2023 -1.2118,0.4035 -1.8177,0.8082c-1.0094,0.4035 -2.4235,1.0094 -4.2412,1.8176c-1.414,0.6059 -3.0294,1.2118 -5.0483,2.02c-2.0199,0.8082 -3.8365,1.4141 -5.8565,2.02c-1.8176,0.6058 -3.8365,1.2117 -5.4529,1.6153c-1.8176,0.4035 -3.2306,0.6059 -4.4424,0.6059c-1.8177,0 -3.433,-0.2024 -4.4424,-0.6059c-1.0095,-0.4036 -1.6154,-1.0095 -2.02,-1.4141c-0.2023,-0.4036 -0.2023,-0.6059 -0.2023,-0.8082c0,-0.6059 0.2023,-0.8082 0.8082,-0.8082c2.8271,-0.8082 5.2506,-1.8177 7.4718,-3.0294c2.2212,-1.2118 4.2412,-2.4235 5.6542,-3.8366c1.6153,-1.414 2.8271,-2.6258 3.6353,-4.0388c0.8082,-1.4141 1.2117,-2.4235 1.2117,-3.433c0,-1.8176 -1.2117,-2.6258 -3.6352,-2.6258c-1.8177,0 -4.6448,0.8082 -8.4813,2.4235c-3.6353,1.6153 -7.4718,3.2307 -11.3095,5.2506c-4.4424,2.2212 -9.2894,4.8471 -14.3377,7.6742c-0.4036,0 -0.8082,-0.4036 -0.8082,-1.0095c0,-0.8082 0.4035,-2.2212 1.4141,-4.0388c4.847,-2.4236 10.5012,-5.453 17.3671,-9.2895c6.866,-3.8365 13.9342,-7.8765 21.2048,-12.5212c7.2706,-4.6447 14.5401,-9.4918 21.8107,-14.7424c7.2706,-5.2506 13.733,-10.5013 19.3872,-15.9542c5.8565,-5.4529 10.5012,-10.7036 13.9342,-15.9542c4.4424,-5.4497 6.26,-10.499 6.26,-15.1438zm-6.0588,0.8082c0,-1.6153 -0.4036,-2.8271 -1.4141,-3.8365c-0.8082,-1.0095 -2.2212,-1.6153 -4.0388,-1.6153c-2.8271,0 -6.0589,1.0094 -9.6931,2.8271c-3.6353,1.8176 -7.4718,4.4424 -11.5106,7.4718c-4.0389,3.2306 -8.2801,6.8659 -12.7225,11.1071c-4.4424,4.2412 -8.6836,8.6836 -12.9248,13.3283c-4.2411,4.6448 -8.4812,9.4918 -12.5212,14.3378c-4.0388,4.8471 -7.8764,9.4918 -11.3094,14.1365c-3.433,4.6448 -6.4624,8.6836 -9.0872,12.7225c-2.6258,3.8365 -4.847,7.2706 -6.4623,9.8953c4.6447,-2.2212 10.0976,-5.2506 16.56,-8.8859c6.2601,-3.6353 12.9248,-7.8765 19.5895,-12.3189c6.8659,-4.6447 13.5306,-9.4918 20.1943,-14.5401c6.6647,-5.2506 12.5212,-10.2989 17.7718,-15.5495c5.2506,-5.2506 9.4918,-10.2989 12.7224,-15.146c3.2307,-5.2506 4.846,-9.6941 4.846,-13.9342zm10.7036,85.2217c0,0.4035 -0.2024,0.8082 -0.4036,1.0094l-6.4624,2.8271c-1.0094,0.4036 -2.2212,1.0095 -3.6353,1.6153c-1.4141,0.6059 -3.0294,1.2118 -4.847,1.8177c-1.8177,0.6059 -3.433,1.2117 -5.0483,1.6153c-1.6153,0.4036 -3.0294,0.6059 -4.2412,0.6059c-1.2118,0 -2.2212,-0.2023 -3.0294,-0.8082c-0.8082,-0.6059 -1.2118,-1.2118 -1.8177,-1.8177c-0.4035,-0.8082 -0.8082,-1.414 -0.8082,-2.2212c-0.2023,-0.8082 -0.2023,-1.2117 -0.2023,-1.6153c0,-1.6153 0.4036,-2.8271 1.0095,-4.2412c0.6058,-1.2117 1.0094,-2.0199 1.2117,-2.2212c0,-0.2023 0,-0.2023 -0.2023,-0.2023c-0.8082,0.8082 -2.2212,1.8177 -3.8365,3.0294c-1.8177,1.4141 -3.8366,2.6259 -5.8565,4.0389c-2.2212,1.4141 -4.4424,2.4235 -6.6647,3.4329c-2.2212,1.0095 -4.2412,1.6154 -6.2601,1.6154c-1.0094,0 -2.02,-0.6059 -2.6258,-1.6154c-0.8082,-1.0094 -1.2118,-2.0199 -1.2118,-3.2306c0,-1.2118 0.4036,-2.6259 1.2118,-4.0389c0.8082,-1.6153 1.8176,-3.0294 3.0294,-4.4424c1.2117,-1.4141 2.4235,-2.8271 3.4329,-4.0388c1.2118,-1.2118 2.02,-2.02 2.6259,-2.4236c0,0 0,-0.2023 0.2023,-0.2023l0.6059,0.001c0.4036,0 0.8082,0.2023 1.2118,0.4036c0,0.2023 0.2023,0.2023 0.2023,0.4035c0,0.4036 -0.4036,1.0095 -1.0095,1.8177c-0.6058,0.8082 -1.4141,1.6153 -2.2212,2.6258c-0.8082,1.0095 -1.6153,2.02 -2.2212,3.0294c-0.6059,1.2118 -1.0094,2.2212 -1.0094,3.433c0,1.0094 0.2023,1.8176 0.8082,2.6259c0.6059,0.8082 1.2117,1.2117 2.0199,1.2117c1.8177,0 4.0389,-0.8082 6.6648,-2.4235c2.6258,-1.6153 5.0482,-3.433 7.6741,-5.453c2.8271,-2.4235 5.8565,-4.847 8.8859,-7.6741c0.6059,0 1.2118,0.2023 1.6153,0.4036c0.4036,0.2023 0.6059,0.8082 0.6059,1.6153c0,0.4035 -0.2023,0.8082 -0.4035,1.2118c-0.2024,0.4035 -0.8082,1.414 -1.4141,3.2306c-0.8082,1.8176 -1.0095,3.433 -1.0095,5.2506c0,0.4036 0,0.8082 0,1.2118c0,0.6059 0.2024,1.2117 0.4036,1.8176c0.2023,0.6059 0.6059,1.2118 1.0094,1.6154c0.4036,0.4035 1.2118,0.6058 2.2212,0.6058c1.0095,0 2.2212,-0.2023 3.433,-0.6058c1.2118,-0.4036 2.6259,-0.8082 3.8365,-1.2118c1.2118,-0.4036 2.4236,-1.0095 3.6353,-1.4141c1.0095,-0.4036 2.02,-0.8082 2.4236,-1.0094c1.8176,-0.8082 3.4329,-1.4141 4.2411,-1.8177c0.6059,-0.4035 1.2118,-0.6059 1.8177,-0.8082c0.2023,0 0.4036,0.2023 0.4036,0.4036c-0.2035,0.608 -0.001,0.8093 -0.001,1.0116l-0.0001,0.0001z" stroke-width="0.5292" stroke="#5bae64" fill-rule="evenodd" fill="#59ad64"/>
     <path id="path18" d="m262.0114,37.314c-22.8201,15.3483 -22.0119,18.3777 -41.1979,9.8954c-8.8859,-3.8365 -14.7424,-4.2412 -20.1942,1.2118c-5.8565,5.8565 -5.0483,14.1365 -5.8565,22.6178c-0.6059,-9.8954 -2.8271,-18.9836 4.6447,-26.6567c5.0483,-5.2506 12.1166,-8.0777 22.0119,-4.2412c14.5401,5.6542 16.3578,7.2706 28.879,1.2118c3.8376,-2.0189 8.28,-5.0483 11.713,-4.0389z" stroke-width="0.5292" stroke="#5bae64" fill-rule="evenodd" fill="#59ad64"/>
     <path id="path20" d="m196.7827,84.3684c2.02,13.7329 4.4425,27.6671 9.4918,40.5919c5.6542,14.5401 14.1366,22.8201 28.0708,0.6059c-11.5107,10.0977 -17.166,10.9048 -22.6178,2.4235c-7.6753,-11.9164 -8.887,-29.2836 -14.9448,-43.6213z" stroke-width="0.5292" stroke="#5bae64" fill-rule="evenodd" fill="#59ad64"/>
     <path id="path22" d="m235.556,104.5626c1.2117,-2.2212 3.8365,-3.8365 7.0682,-1.6153c6.4624,4.4424 8.4813,12.3189 11.1071,19.993l2.02,7.6742c-3.433,-7.2706 -6.8659,-15.5495 -11.5107,-20.8002c-2.0199,-2.2212 -4.0388,-2.6258 -5.8565,-1.414c-2.4235,1.8165 -4.6447,-0.4047 -2.8281,-3.8377z" stroke-width="0.5292" stroke="#5bae64" fill-rule="evenodd" fill="#59ad64"/>
     <path id="path24" d="m204.6581,53.4705c9.0872,5.0483 13.733,8.2801 24.0319,10.299c18.579,3.4329 18.7813,-3.8366 34.9367,-9.4918c15.3483,-5.2507 18.5789,6.4623 18.7813,19.993c-1.8177,19.7907 -6.0589,28.6766 -13.1271,46.2461c-4.4424,10.7036 -9.6931,17.7718 -13.9342,27.8684c-1.2118,3.0294 -2.02,6.4624 -2.2212,9.0872c3.8365,-9.6931 9.8953,-18.7813 15.9541,-25.6472c7.6742,-8.6836 11.1072,-10.2989 22.8202,-13.733c2.8271,-6.4624 6.6647,-9.4918 13.127,-10.9048c1.6154,-13.9342 8.6836,-26.2531 23.4261,-23.0224c2.0199,0.4035 1.414,2.4235 0.6058,4.6447l-5.4529,15.9542l-2.6259,8.0777c-1.6153,4.6447 -3.8365,9.2895 -8.8859,10.9048c-0.2023,8.0777 -3.4329,16.56 -5.2506,24.6377c5.8565,-14.9436 12.5212,-22.4165 14.9437,-28.6766l5.4529,-15.9541c2.4235,-6.4624 3.433,-8.886 6.6647,-14.5401c1.4141,-2.4236 1.8177,-4.8471 -1.6153,-6.866c-5.453,-3.2306 -9.2895,-2.8271 -14.7424,-0.8082c-7.8765,3.0294 -12.5212,11.3095 -15.7519,19.1848l-1.2117,2.4236c-6.4624,3.0294 -8.886,5.6541 -12.3189,12.3189c-8.0777,1.414 -11.5107,4.4424 -18.1754,10.0976c-1.6153,1.0095 -0.4036,-1.2117 0.4035,-2.6258c6.6647,-13.733 12.3189,-25.8496 13.733,-41.6014c1.6153,-16.5601 0.4036,-38.7743 -21.406,-32.3119c-18.7813,5.6542 -22.2143,14.3377 -44.2262,7.6741c-5.4529,-1.8155 -7.4729,-2.6237 -13.9353,-3.2285z" stroke-width="0.5292" stroke="#5bae64" fill-rule="evenodd" fill="#59ad64"/>
     <path id="path26" d="m295.3327,61.7495c-1.8176,8.6836 -1.6153,18.7813 2.6259,26.6566c1.0094,2.02 2.8271,1.6154 3.2306,0.4036c0.2024,-0.8082 0.2024,-2.6259 -1.0094,-4.0389c-4.4424,-5.6541 -4.0389,-15.5495 -2.02,-22.2142c0.6059,-2.02 0.2023,-2.02 2.4236,-3.0294c0.8082,-1.2118 0.8082,-2.8271 -2.02,-3.433c-4.2412,-0.8082 -6.866,-3.6353 -9.6931,-6.8659c-7.2705,-8.4813 -14.1365,-18.1754 -10.5012,-30.4943c1.8177,-6.2601 5.2506,-2.2212 11.713,5.6542l9.2895,11.5107c3.8365,4.847 6.26,8.28 9.0871,13.1271c2.2212,3.6353 2.02,3.8365 2.4236,8.0777c0.6058,6.4623 1.2117,13.3283 4.6447,16.7613c1.8177,1.8176 4.2412,2.6258 7.8765,2.2212c1.2117,0 2.0199,-4.2412 -0.6059,-3.6353c-4.6447,1.2117 -6.0588,-1.8177 -6.866,-5.8565c-1.414,-6.2601 -1.414,-13.9342 -1.8176,-20.5989c-1.4141,0 -2.4235,-0.2024 -3.2307,-0.6059c-2.2212,-1.0095 -2.4235,-3.2307 -2.6258,-7.0683c-0.6059,-7.2706 -1.2118,-14.3378 3.0294,-20.8001c4.6447,-7.2706 5.8565,0 9.8954,9.8953l8.4812,21.0025c7.0683,16.1554 8.6836,21.406 9.8954,39.7837c0.6059,10.9048 1.0094,20.8002 -1.2118,31.5037c-4.6447,22.6178 -21.6083,33.3214 -29.4848,54.1216c-1.6153,4.2411 -2.8271,8.6835 -1.2118,12.9247c1.6154,4.0389 3.433,3.2307 4.8471,0.4036c0.6059,-1.2118 0.8082,-2.2212 1.4141,-4.4424c1.6153,-6.866 2.8271,-13.1271 6.6647,-20.1943c10.0977,-16.3577 16.7613,-24.6378 21.6083,-41.8037c2.2212,-7.8765 1.6154,-15.5495 1.8177,-23.8296c-0.8082,-23.426 -3.0294,-31.706 -11.713,-52.7085l-9.2895,-22.2142c-4.2412,-11.713 -6.0588,-17.7718 -13.5306,-8.6836c-4.0389,4.847 -4.8471,11.1071 -5.453,17.1659c-0.4035,4.0389 -1.8176,3.0294 -3.6353,0.6059l-4.2411,-5.2506c-9.6931,-13.1271 -17.7719,-25.0413 -20.8002,-6.4624c-1.2118,7.4718 -0.6059,9.4918 0.8082,16.5601c0.2023,1.0094 1.0094,2.8271 0,2.4235c-3.0294,-2.2212 -9.4918,-7.6741 -13.1271,-8.28c-1.6153,-0.2024 -4.2412,-0.2024 -5.0483,1.0094c-0.8082,1.8177 1.2118,2.4235 2.8271,2.6259c6.6647,1.0094 14.9437,7.8764 21.0025,12.9247c2.6258,2.4246 14.5412,12.7236 13.5306,15.1471z" stroke-width="0.5292" stroke="#5bae64" fill-rule="evenodd" fill="#59ad64"/>
     <path id="path28" d="m254.5395,127.3828c-10.2989,23.8295 -10.9047,43.8226 -5.0482,61.9979c5.8565,18.1754 18.7812,34.1296 36.552,48.4674c13.9342,11.1071 30.8978,21.406 52.3049,30.4942c21.406,8.8859 47.0543,16.7613 78.3557,22.6178l1.4141,4.2412c-31.3014,-6.0588 -59.3721,-14.7424 -80.9816,-23.8296c-21.6083,-9.0871 -38.9755,-19.3871 -53.112,-30.8978c-18.1754,-14.7424 -31.5037,-31.1001 -37.5626,-50.0826c-6.0588,-18.9836 -3.6353,-41.8037 6.866,-66.4404l1.2117,3.4319z" stroke-width="0.5292" stroke="#5bae64" fill-rule="evenodd" fill="#59ad64"/>
    </g>
   </g>
  </g>
  <g id="Layer1007">
   <text id="text35" y="472.172" x="-0.5426">
    <tspan id="tspan33" font-size="50.5px" fill="#59ad64" font-family="'Century Gothic'">СТОМАТОЛОГИЧЕСКАЯ</tspan>
   </text>
  </g>
  <g id="Layer1008">
   <text id="text40" y="572.70428" x="31.2803">
    <tspan id="tspan38" font-size="145px" fill="#53a6d1" font-family="'Century Gothic'">клиника</tspan>
   </text>
  </g>
 </g>
</svg>